<svg data-name="Layer 1" xmlns="http://www.w3.org/2000/svg" viewBox="0 0 46 46"><circle cx="23" cy="23" r="23" fill="#fbb615" opacity=".13"/><path d="M22.24 20.53a1.53 1.53 0 0 1 3.05 0v2.34a2.33 2.33 0 0 1-.69 1.58 2.32 2.32 0 0 1-4-1.63v-2.47h-.82a.93.93 0 0 1 .27-.65.94.94 0 0 1 1.31 0 .94.94 0 0 1 .28.65v2.42a1.33 1.33 0 0 0 .39.94 1.31 1.31 0 0 0 .93.39 1.36 1.36 0 0 0 .94-.39 1.33 1.33 0 0 0 .38-.88V20.5a.54.54 0 0 0-.16-.34.52.52 0 0 0-.36-.16.56.56 0 0 0-.38.15.52.52 0 0 0-.15.37.56.56 0 0 0 .15.38.53.53 0 0 0 .38.16v1a1.49 1.49 0 0 1-1.07-.45 1.51 1.51 0 0 1-.45-1.08m5.49-4.34l2.34-2.33.71.7-2.34 2.33zm-12-2.33L18 16.19l-.71.7L15 14.56zm6.69-2.24h1v2.8h-1v-2.8zm7.84 9.61h3.31v1h-3.34v-1zm-18 0h3.31v1h-3.34v-1zm13.24 5.58v1.94h-5.23v-1.94a5.71 5.71 0 1 1 8.33-5.07 5.7 5.7 0 0 1-3.1 5.07m-4.23-.62v1.57h3.23v-1.61a4.58 4.58 0 0 0 2.34-1.84 4.72 4.72 0 0 0-.62-5.91 4.72 4.72 0 0 0-7.3 5.89 4.92 4.92 0 0 0 2.35 1.9m.1 3.5h3.52v.5c0 4.82-4 5.23-4 0v-.5h.5zm2.52 1h-2c0 3 2 2.83 2 0" fill="#fbb615"/></svg>